<svg width="403" height="351" viewBox="0 0 403 351" fill="none" xmlns="http://www.w3.org/2000/svg">
<g clip-path="url(#clip0_1434_12041)">
<path d="M0.656684 45.0941C-2.51097 29.9789 19.5046 11.4393 49.8262 3.68666C71.1818 -1.77357 90.9616 -0.420702 101.901 6.12285C103.599 7.1457 105.074 8.56701 106.222 10.2869C107.37 12.0068 108.163 13.9835 108.545 16.0781L120.398 80.0195L212.448 161.32L143.717 265.662L89.6206 194.15L104.109 244.317C105.385 248.925 105.724 253.788 105.103 258.557C104.481 263.327 102.914 267.887 100.513 271.911L98.2312 275.738C97.8632 276.355 97.3593 276.86 96.7668 277.203C96.1742 277.546 95.5124 277.718 94.8434 277.701C94.1744 277.685 93.5201 277.481 92.942 277.109C92.3638 276.737 91.8807 276.209 91.5379 275.574L41.9454 183.725C34.2149 169.416 31.2077 152.592 33.4348 136.111L37.0069 109.67L0.656684 45.0941Z" fill="#FFBA96"/>
<path d="M83.332 258.903C86.6972 257.363 90.5551 257.848 93.2603 260.549C97.1066 264.4 97.1647 271.246 93.3881 275.864" stroke="#800F0D" stroke-miterlimit="10" stroke-linecap="round"/>
<path d="M371.199 109.669L376.407 121.404C384.234 139.034 385.899 159.234 381.083 178.137L346.655 313.287C346.472 314.004 346.149 314.667 345.708 315.231C345.267 315.794 344.719 316.243 344.104 316.547C343.488 316.85 342.819 317 342.145 316.986C341.471 316.972 340.808 316.794 340.203 316.465L336.583 314.496C332.839 312.461 329.679 309.318 327.456 305.418C325.233 301.518 324.032 297.012 323.989 292.403L323.701 261.788L206.553 349.583C204.829 350.877 202.764 351.497 200.684 351.347C198.605 351.197 196.63 350.284 195.074 348.753C193.517 347.223 192.468 345.162 192.092 342.898C191.716 340.634 192.036 338.296 192.999 336.255L200.264 320.852L176.666 342.079C174.645 343.894 172.095 344.834 169.493 344.723C166.89 344.611 164.414 343.457 162.526 341.475C160.638 339.493 159.469 336.819 159.236 333.954C159.004 331.089 159.724 328.228 161.262 325.907L174.705 305.657L161.042 319.931C159.285 321.781 156.971 322.847 154.545 322.923C152.119 322.999 149.754 322.08 147.905 320.344C146.057 318.607 144.856 316.175 144.535 313.518C144.215 310.861 144.796 308.167 146.168 305.955L159.491 285.824L146.612 294.021C144.787 295.079 142.691 295.425 140.666 295.001C138.641 294.577 136.805 293.409 135.457 291.687C134.109 289.964 133.328 287.789 133.241 285.514C133.154 283.239 133.766 280.999 134.977 279.157L242.283 116.023C248.337 106.813 256.187 99.2224 265.253 93.8127C274.319 88.403 284.369 85.3122 294.662 84.7684L301.004 27.1703C306.5 14.5915 334.419 8.94384 359.154 15.015C387.537 21.9924 406.822 45.0194 402.845 59.1153L402.804 59.2591L371.199 109.669Z" fill="#FFBA96"/>
<path d="M323.699 261.78L327.132 209.994L318.791 194.147" stroke="#800F0D" stroke-miterlimit="10" stroke-linecap="round"/>
<path d="M371.201 109.669C371.201 109.669 366.6 103.665 358.854 98.7207" stroke="#800F0D" stroke-miterlimit="10" stroke-linecap="round"/>
<path d="M345.277 314.836C341.391 312.844 338.734 308.795 338.734 304.123C338.734 297.48 344.115 292.094 350.752 292.094" stroke="#800F0D" stroke-miterlimit="10" stroke-linecap="round"/>
<path d="M318.789 194.147C313.858 211.052 306.007 225.772 296.348 237.493C294.887 239.269 293.385 240.975 291.842 242.609L279.718 253.427L204.168 320.847L128.618 253.427L116.48 242.594C114.942 240.961 113.442 239.258 111.981 237.485C102.324 225.764 94.4715 211.044 89.5399 194.14C74.3035 141.899 92.7563 88.5856 130.754 75.0621C156.228 65.9976 184.016 80.1629 204.159 104.214C224.304 80.1629 252.092 65.9976 277.566 75.0621C315.573 88.5933 334.026 141.907 318.789 194.147Z" fill="#CC1814"/>
<path d="M135.41 321.617V73.2646" stroke="#CCA414" stroke-miterlimit="10"/>
<path d="M125.145 321.616V77.2021" stroke="#CCA414" stroke-miterlimit="10"/>
<path d="M145.988 321.617V73.2646" stroke="#CCA414" stroke-miterlimit="10"/>
<path d="M156.568 321.617V73.2646" stroke="#CCA414" stroke-miterlimit="10"/>
<path d="M167.145 321.616V77.2021" stroke="#CCA414" stroke-miterlimit="10"/>
<path d="M177.721 321.617V81.1406" stroke="#CCA414" stroke-miterlimit="10"/>
<path d="M188.297 321.616V89.0186" stroke="#CCA414" stroke-miterlimit="10"/>
<path d="M198.873 321.616V89.0186" stroke="#CCA414" stroke-miterlimit="10"/>
<path d="M93.5625 321.616V89.0186" stroke="#CCA414" stroke-miterlimit="10"/>
<path d="M104.139 321.616V89.0186" stroke="#CCA414" stroke-miterlimit="10"/>
<path d="M114.715 321.617V81.1406" stroke="#CCA414" stroke-miterlimit="10"/>
<path d="M209.15 190.409H82.8184" stroke="#CCA414" stroke-miterlimit="10"/>
<path d="M209.15 178.727H82.8184" stroke="#CCA414" stroke-miterlimit="10"/>
<path d="M209.15 167.041H82.8184" stroke="#CCA414" stroke-miterlimit="10"/>
<path d="M209.15 155.358H82.8184" stroke="#CCA414" stroke-miterlimit="10"/>
<path d="M209.15 143.675H82.8184" stroke="#CCA414" stroke-miterlimit="10"/>
<path d="M209.15 131.992H82.8184" stroke="#CCA414" stroke-miterlimit="10"/>
<path d="M209.15 120.309H82.8184" stroke="#CCA414" stroke-miterlimit="10"/>
<path d="M209.151 108.627H83.4141" stroke="#CCA414" stroke-miterlimit="10"/>
<path d="M209.15 96.9414H82.8184" stroke="#CCA414" stroke-miterlimit="10"/>
<path d="M209.15 283.944H82.8184" stroke="#CCA414" stroke-miterlimit="10"/>
<path d="M209.15 295.75H82.8184" stroke="#CCA414" stroke-miterlimit="10"/>
<path d="M209.15 272.262H82.8184" stroke="#CCA414" stroke-miterlimit="10"/>
<path d="M209.15 260.578H82.8184" stroke="#CCA414" stroke-miterlimit="10"/>
<path d="M209.15 248.896H82.8184" stroke="#CCA414" stroke-miterlimit="10"/>
<path d="M209.15 237.212H82.8184" stroke="#CCA414" stroke-miterlimit="10"/>
<path d="M209.15 225.527H82.8184" stroke="#CCA414" stroke-miterlimit="10"/>
<path d="M209.15 213.845H82.8184" stroke="#CCA414" stroke-miterlimit="10"/>
<path d="M209.151 202.161H83.4141" stroke="#CCA414" stroke-miterlimit="10"/>
<path d="M251.779 321.617V73.2646" stroke="#CCA414" stroke-miterlimit="10"/>
<path d="M241.516 321.616V77.2021" stroke="#CCA414" stroke-miterlimit="10"/>
<path d="M262.355 321.617V73.2646" stroke="#CCA414" stroke-miterlimit="10"/>
<path d="M272.934 321.617V73.2646" stroke="#CCA414" stroke-miterlimit="10"/>
<path d="M283.514 321.616V77.2021" stroke="#CCA414" stroke-miterlimit="10"/>
<path d="M294.09 321.617V81.9287" stroke="#CCA414" stroke-miterlimit="10"/>
<path d="M304.666 321.616V89.0186" stroke="#CCA414" stroke-miterlimit="10"/>
<path d="M315.242 321.616V89.0186" stroke="#CCA414" stroke-miterlimit="10"/>
<path d="M209.932 321.616V89.0186" stroke="#CCA414" stroke-miterlimit="10"/>
<path d="M220.508 321.616V89.0186" stroke="#CCA414" stroke-miterlimit="10"/>
<path d="M231.084 321.617V81.9287" stroke="#CCA414" stroke-miterlimit="10"/>
<path d="M325.52 190.409H199.188" stroke="#CCA414" stroke-miterlimit="10"/>
<path d="M325.52 178.727H199.188" stroke="#CCA414" stroke-miterlimit="10"/>
<path d="M325.52 167.041H199.188" stroke="#CCA414" stroke-miterlimit="10"/>
<path d="M325.52 155.358H199.188" stroke="#CCA414" stroke-miterlimit="10"/>
<path d="M325.52 143.676H199.188" stroke="#CCA414" stroke-miterlimit="10"/>
<path d="M325.52 131.992H199.188" stroke="#CCA414" stroke-miterlimit="10"/>
<path d="M325.52 120.309H199.188" stroke="#CCA414" stroke-miterlimit="10"/>
<path d="M325.518 108.626H199.781" stroke="#CCA414" stroke-miterlimit="10"/>
<path d="M325.52 96.9414H199.188" stroke="#CCA414" stroke-miterlimit="10"/>
<path d="M294.145 84.7344H114.332" stroke="#CCA414" stroke-miterlimit="10"/>
<path d="M325.52 283.944H199.188" stroke="#CCA414" stroke-miterlimit="10"/>
<path d="M325.52 295.751H199.188" stroke="#CCA414" stroke-miterlimit="10"/>
<path d="M296.996 307.172H170.664" stroke="#CCA414" stroke-miterlimit="10"/>
<path d="M325.52 272.262H199.188" stroke="#CCA414" stroke-miterlimit="10"/>
<path d="M325.52 260.579H199.188" stroke="#CCA414" stroke-miterlimit="10"/>
<path d="M325.52 248.896H199.188" stroke="#CCA414" stroke-miterlimit="10"/>
<path d="M325.52 237.212H199.188" stroke="#CCA414" stroke-miterlimit="10"/>
<path d="M325.52 225.527H199.188" stroke="#CCA414" stroke-miterlimit="10"/>
<path d="M325.52 213.845H199.188" stroke="#CCA414" stroke-miterlimit="10"/>
<path d="M325.518 202.162H199.781" stroke="#CCA414" stroke-miterlimit="10"/>
<path d="M318.789 194.15C313.858 211.051 306.007 225.771 296.349 237.493C294.887 239.269 293.385 240.974 291.842 242.609L282.727 250.741H217.218C194.654 250.741 183.103 220.858 198.711 202.857L241.815 153.135L323.765 152.742C324.795 166.71 322.859 180.187 318.789 194.15Z" fill="#56303C"/>
<path d="M259.168 222.254H288.943C294.906 222.255 300.736 220.312 305.703 216.668C310.67 213.024 314.552 207.842 316.864 201.771L318.403 197.733" stroke="#FFBA96" stroke-miterlimit="10" stroke-linecap="round"/>
<path d="M310.268 219.598L297.807 245.333L305.557 249.376C310.052 251.879 313.608 256.045 315.604 261.149C315.678 261.341 315.814 261.497 315.986 261.586C316.157 261.674 316.353 261.69 316.534 261.629C316.715 261.569 316.87 261.437 316.969 261.258C317.067 261.079 317.103 260.867 317.068 260.661L310.268 219.598Z" fill="#EFCB0D"/>
<path d="M310.27 219.598L317.067 260.661" stroke="#56303C" stroke-miterlimit="10" stroke-linecap="round"/>
<path d="M300.976 253.571C300.298 253.571 299.648 253.273 299.169 252.743C298.689 252.214 298.42 251.496 298.42 250.747C298.42 249.998 298.689 249.28 299.169 248.75C299.648 248.22 300.298 247.923 300.976 247.923H302.836C302.928 247.921 303.02 247.94 303.106 247.978C303.192 248.016 303.27 248.072 303.336 248.144C303.402 248.216 303.454 248.301 303.49 248.395C303.526 248.49 303.544 248.591 303.544 248.693V250.747C303.544 251.119 303.478 251.487 303.349 251.83C303.22 252.174 303.03 252.486 302.792 252.748C302.553 253.01 302.27 253.218 301.958 253.359C301.647 253.5 301.313 253.572 300.976 253.571Z" stroke="white" stroke-miterlimit="10" stroke-linecap="round"/>
<path d="M303.201 243.921L303.536 248.698" stroke="white" stroke-miterlimit="10" stroke-linecap="round"/>
<path d="M323.217 142.833C327.131 166.708 316.352 182.986 299.494 191.578L243.106 220.311L236.831 201.79L287.302 160.079L268.565 166.579C263.4 168.37 257.824 168.052 252.852 165.684C247.88 163.317 243.844 159.055 241.477 153.677L229.856 127.274C229.576 126.687 229.18 126.177 228.697 125.782C228.215 125.387 227.658 125.116 227.068 124.99C226.478 124.864 225.87 124.885 225.289 125.053C224.708 125.221 224.168 125.531 223.709 125.96L211.392 138.025C210.695 132.56 209.677 127.097 208.517 121.596C207.612 114.465 205.366 107.621 201.924 101.506C222.069 77.4929 252.123 66 277.571 75.0645C301 83.4024 317.352 104.106 322.606 133.114L323.217 142.833Z" fill="#CC1814"/>
<path d="M202.596 101.177C202.596 101.177 208.197 109.558 209.166 121.216" stroke="#56303C" stroke-miterlimit="10" stroke-linecap="round"/>
<path d="M292.608 137.73L286.949 159.299" stroke="#56303C" stroke-miterlimit="10" stroke-linecap="round"/>
<path d="M245.25 91.4426C245.25 79.2514 253.833 72.3125 265.739 72.3125C277.645 72.3125 283.729 84.5961 283.729 95.3805L287.294 160.072L262.792 168.918L267.207 104.178L245.25 91.4426Z" fill="#56303C"/>
<path d="M269.045 99.9727V95.8936" stroke="#D9AF00" stroke-miterlimit="10" stroke-linecap="round"/>
<path d="M271.034 98.7466L269.045 99.9737C269.045 99.9737 255.872 104.551 248.73 86.5195L245.244 91.7924L246.12 103.172C246.764 111.541 255.207 116.18 261.636 111.695L270.551 105.478C271.375 104.9 272.046 104.091 272.496 103.133C272.945 102.175 273.156 101.102 273.107 100.025C273.097 99.7624 273.026 99.507 272.901 99.2832C272.776 99.0594 272.601 98.8747 272.394 98.7465C272.186 98.6184 271.952 98.5511 271.714 98.5511C271.476 98.5512 271.242 98.6185 271.034 98.7466Z" fill="#B4702F"/>
<path d="M245.654 97.0527L248.171 98.3799C248.961 98.8707 249.626 99.5716 250.108 100.419C250.59 101.266 250.872 102.233 250.93 103.232L251.253 108.815" stroke="#56303C" stroke-miterlimit="10" stroke-linecap="round"/>
<path d="M260.019 104.743C259.449 105.218 258.75 105.464 258.037 105.439C257.107 105.439 256.305 105.082 255.873 104.551" stroke="#56303C" stroke-miterlimit="10" stroke-linecap="round"/>
<path d="M248.746 102.766C248.564 102.989 248.341 103.167 248.091 103.287C247.842 103.407 247.572 103.467 247.3 103.462C246.992 103.468 246.687 103.391 246.412 103.236C246.138 103.082 245.901 102.855 245.725 102.576" stroke="#56303C" stroke-miterlimit="10" stroke-linecap="round"/>
<path d="M278.948 171.628L246.935 194.503L241.159 233.403L261.827 248.179C263.338 249.259 264.595 250.719 265.496 252.44C266.398 254.161 266.917 256.093 267.011 258.078C267.106 260.063 266.773 262.045 266.04 263.86C265.308 265.676 264.196 267.274 262.796 268.523L223.873 303.256C223.669 303.438 223.417 303.541 223.156 303.55C222.894 303.56 222.637 303.475 222.423 303.308C222.208 303.142 222.049 302.903 221.969 302.628C221.888 302.353 221.891 302.056 221.977 301.783L227.973 282.753C228.281 281.773 228.92 280.962 229.756 280.489C230.591 280.015 231.56 279.916 232.46 280.211L235.349 281.161L246.935 261.063L226.959 255.898L200.466 306.052L205.1 316.035C205.469 316.832 205.578 317.745 205.409 318.621C205.24 319.496 204.802 320.281 204.17 320.841L189.319 307.59C188.233 306.619 187.447 305.299 187.072 303.812C186.697 302.325 186.752 300.746 187.228 299.295L223.116 190.05C224.014 187.313 225.484 184.85 227.405 182.858C229.327 180.867 231.646 179.404 234.176 178.587L282.766 161.444C282.35 161.609 277.245 163.742 278.948 171.628Z" fill="#EFCB0D"/>
<path d="M249.977 261.779L246.938 261.068L248.211 259.04" stroke="white" stroke-miterlimit="10" stroke-linecap="round"/>
<path d="M226.957 255.904L225.869 255.496C224.501 254.982 223.279 254.08 222.326 252.881C221.372 251.681 220.721 250.227 220.436 248.662" stroke="white" stroke-miterlimit="10" stroke-linecap="round"/>
<path d="M226.027 178.626L223.703 188.507L224.026 187.819C225.917 183.779 229.15 180.703 233.048 179.237L244.759 174.873L243.474 172.917C243.154 172.432 242.705 172.07 242.189 171.883C241.673 171.695 241.116 171.693 240.599 171.875L228.035 176.298C227.55 176.468 227.112 176.77 226.761 177.177C226.409 177.584 226.157 178.083 226.027 178.626Z" fill="white"/>
<path d="M228.682 279.921L221.621 303.756" stroke="#56303C" stroke-miterlimit="10" stroke-linecap="round"/>
<path d="M185.602 304.278L204.168 320.846" stroke="#56303C" stroke-miterlimit="10" stroke-linecap="round"/>
<path d="M297.378 166.953C297.504 167.048 297.609 167.173 297.686 167.318C297.763 167.464 297.81 167.627 297.824 167.794C297.837 167.962 297.816 168.132 297.763 168.29C297.71 168.448 297.626 168.591 297.517 168.709L295.051 171.371C294.241 172.246 293.195 172.807 292.071 172.97C290.947 173.133 289.806 172.889 288.818 172.275L284.751 169.741C284.241 169.424 283.662 169.266 283.077 169.286C282.492 169.305 281.922 169.501 281.43 169.851L278.948 171.628C277.245 163.742 282.351 161.616 282.767 161.449H282.792L284.737 160.764C285.676 160.433 286.671 160.343 287.646 160.5C288.621 160.658 289.55 161.059 290.364 161.672L297.378 166.953Z" fill="#B4702F"/>
<path d="M292.746 166.709L296.083 169.094" stroke="#56303C" stroke-miterlimit="10" stroke-linecap="round"/>
<path d="M290.963 168.678L294.3 171.063" stroke="#56303C" stroke-miterlimit="10" stroke-linecap="round"/>
<path d="M240.442 172.219L226.449 176.839C225.505 177.152 224.497 177.136 223.562 176.796C222.626 176.455 221.808 175.805 221.217 174.935L217.299 169.166C216.287 167.677 215.599 165.95 215.288 164.12C214.977 162.29 215.051 160.405 215.505 158.611C215.959 156.818 216.779 155.164 217.904 153.776C219.029 152.389 220.427 151.306 221.991 150.611L230.723 146.73C232.43 145.97 234.331 145.929 236.064 146.615C237.797 147.3 239.242 148.663 240.126 150.447L242.361 154.955L245.046 155.915C245.153 155.953 245.253 156.014 245.339 156.095C245.425 156.176 245.496 156.275 245.548 156.386C245.6 156.497 245.631 156.618 245.64 156.743C245.649 156.867 245.636 156.992 245.601 157.111L244.795 159.868L244.929 160.125C245.476 161.223 245.793 162.443 245.857 163.694C245.922 164.945 245.732 166.196 245.301 167.356C244.871 168.516 244.211 169.554 243.37 170.396C242.53 171.237 241.529 171.86 240.442 172.219Z" fill="#B4702F"/>
<path d="M227.481 168.139C226.835 167.558 226.05 167.196 225.222 167.097C224.394 166.997 223.558 167.163 222.814 167.577L222.728 167.625C221.842 168.116 221.132 168.923 220.713 169.915C220.294 170.906 220.19 172.025 220.418 173.091L220.069 173.25L217.299 169.171C216.287 167.681 215.599 165.954 215.288 164.124C214.977 162.294 215.051 160.409 215.505 158.616C215.959 156.822 216.779 155.168 217.904 153.781C219.029 152.394 220.427 151.311 221.991 150.616L230.723 146.734C231.901 146.209 233.18 146.023 234.441 146.195C236.098 153.822 233.386 162.265 227.481 168.139Z" fill="#56303C"/>
<path d="M223.188 170.508C223.188 170.508 225.976 169.525 226.971 172.167" stroke="#56303C" stroke-miterlimit="10" stroke-linecap="round"/>
<path d="M224.377 172.462L225.081 170.398" stroke="#56303C" stroke-miterlimit="10" stroke-linecap="round"/>
<path d="M240.102 158.859C240.658 158.859 241.108 158.361 241.108 157.747C241.108 157.133 240.658 156.636 240.102 156.636C239.546 156.636 239.096 157.133 239.096 157.747C239.096 158.361 239.546 158.859 240.102 158.859Z" fill="#56303C"/>
<path d="M110.634 235.727C109.421 234.443 107.45 231.25 106.234 229.735C98.9328 218.984 93.3166 206.955 89.6199 194.15C74.3812 141.907 92.8294 88.5934 130.834 75.0699C136.384 73.094 142.167 72.0385 147.997 71.938C157.049 71.7711 166.125 73.8556 174.775 77.8808C179.738 80.2051 184.474 83.0796 188.912 86.4601C194.208 90.4967 198.687 95.7059 202.063 101.757C205.439 107.808 207.638 114.568 208.522 121.609C215.046 152.555 216.823 182.318 186.169 218.073L110.634 235.727Z" fill="#59800D"/>
<path d="M168.622 97.2012L167.078 115.967L153.313 106.661L139.771 115.096L138.795 97.2012H168.622Z" fill="white"/>
<path d="M153.736 117.002C154.567 117.002 155.24 116.258 155.24 115.341C155.24 114.423 154.567 113.68 153.736 113.68C152.906 113.68 152.232 114.423 152.232 115.341C152.232 116.258 152.906 117.002 153.736 117.002Z" stroke="white" stroke-miterlimit="10" stroke-linecap="round"/>
<path d="M153.736 128.632C154.567 128.632 155.24 127.889 155.24 126.971C155.24 126.054 154.567 125.311 153.736 125.311C152.906 125.311 152.232 126.054 152.232 126.971C152.232 127.889 152.906 128.632 153.736 128.632Z" stroke="white" stroke-miterlimit="10" stroke-linecap="round"/>
<path d="M174.111 91.6168L173.549 93.7295C173.299 94.668 172.78 95.4918 172.071 96.0776C171.362 96.6635 170.5 96.9799 169.614 96.9795H168.57C168.136 99.8841 166.782 102.524 164.75 104.429C162.717 106.333 160.138 107.379 157.473 107.379H149.999C147.381 107.38 144.845 106.372 142.828 104.529C140.81 102.686 139.439 100.123 138.948 97.2824H137.856C136.971 97.2827 136.109 96.9662 135.4 96.3803C134.691 95.7944 134.173 94.9707 133.924 94.0324L133.361 91.9197C133.246 91.487 133.223 91.0304 133.295 90.5863C133.367 90.1421 133.532 89.7227 133.777 89.3613C134.021 88.9999 134.339 88.7066 134.704 88.5045C135.069 88.3025 135.472 88.1973 135.881 88.1974H136.397C136.774 88.197 137.144 88.3163 137.462 88.5411C137.78 88.7659 138.033 89.0867 138.191 89.4655C140.515 87.4683 142.053 83.8744 142.053 79.767C142.054 79.2644 142.029 78.762 141.977 78.2627C147.415 81.7309 155.54 84.0105 160.869 83.6844C162.419 83.6203 163.955 83.3382 165.44 82.845C166.009 85.7124 167.36 88.1204 169.147 89.5888C169.229 89.111 169.46 88.6799 169.799 88.3704C170.139 88.061 170.566 87.8926 171.006 87.8945H171.601C172.009 87.8965 172.41 88.0032 172.774 88.2061C173.138 88.4089 173.454 88.7025 173.697 89.0635C173.941 89.4245 174.105 89.8432 174.177 90.2863C174.248 90.7294 174.226 91.1849 174.111 91.6168Z" fill="#B4702F"/>
<path d="M161.866 94.1992C161.332 94.644 160.675 94.8732 160.007 94.8487C159.142 94.8487 158.38 94.515 157.982 94.0195" stroke="#56303C" stroke-miterlimit="10" stroke-linecap="round"/>
<path d="M149.03 94.1992C148.496 94.644 147.839 94.8732 147.171 94.8487C146.306 94.8487 145.544 94.515 145.146 94.0195" stroke="#56303C" stroke-miterlimit="10" stroke-linecap="round"/>
<path d="M151.598 90.5215L152.987 101.118H155.762" stroke="#56303C" stroke-miterlimit="10" stroke-linecap="round"/>
<path d="M151.695 91.2037H141.701L142.631 89.1911C142.783 88.859 143.016 88.5802 143.303 88.3857C143.59 88.1912 143.921 88.0888 144.258 88.0899H149.766C150.316 88.0929 150.849 88.2978 151.283 88.6723C151.716 89.0468 152.024 89.5698 152.159 90.1589L152.227 90.449C152.247 90.5385 152.249 90.6319 152.232 90.7223C152.215 90.8126 152.179 90.8974 152.128 90.9702C152.076 91.043 152.011 91.1019 151.936 91.1424C151.861 91.1829 151.778 91.2038 151.695 91.2037Z" fill="#56303C"/>
<path d="M165.893 91.2037H155.965L156.82 89.1911C156.95 88.8682 157.161 88.5931 157.428 88.398C157.694 88.2029 158.006 88.096 158.326 88.0898H163.439C163.968 88.1052 164.478 88.318 164.883 88.6937C165.289 89.0694 165.568 89.5858 165.675 90.1589L165.893 91.2037Z" fill="#56303C"/>
<path d="M171.196 70.7822L169.267 89.6889C167.408 88.2308 166.014 85.7792 165.435 82.845C163.95 83.3383 162.414 83.6204 160.864 83.6845C155.535 84.0105 147.41 81.7309 141.972 78.2627C142.024 78.7621 142.05 79.2644 142.048 79.7671C142.048 83.8745 140.501 87.4684 138.179 89.4733L136.287 70.4536C136.52 63.5841 144.254 61.0401 153.745 61.0401C163.378 61.0324 171.196 63.6585 171.196 70.7822Z" fill="#56303C"/>
<path d="M148.061 244.873C137.782 244.064 128.553 231.847 125.13 205.419C121.911 180.58 120.605 158.595 134.426 154.334C141.224 152.234 148.156 155.068 154.18 161.368L161.171 147.148L170.069 150.943L163.66 175.844C165.786 180.481 167.488 185.342 168.74 190.353C169.33 192.686 169.807 195.012 170.172 197.312C172.986 197.408 175.742 198.216 178.229 199.674C184.599 203.525 187.237 209.236 186.268 217.626C186.797 218.152 187.294 218.716 187.755 219.315C196.043 230.035 193.819 243.928 172.828 258.399C169.442 260.735 164.431 264.244 160.569 266.955L166.881 283.01C166.972 283.412 166.947 283.835 166.809 284.22C166.67 284.605 166.425 284.933 166.109 285.156C165.793 285.378 165.421 285.486 165.047 285.462C164.672 285.439 164.314 285.286 164.022 285.025L145.704 268.678C144.236 267.369 143.229 265.533 142.858 263.49C142.487 261.446 142.775 259.323 143.673 257.49L148.061 244.873Z" fill="#A0D6FF"/>
<path d="M151.26 170.669L138.713 170.885" stroke="#0D4E80" stroke-miterlimit="10" stroke-linecap="round"/>
<path d="M132.803 188.569L152.557 188.289C154.819 188.257 157.013 187.429 158.82 185.926C160.627 184.423 161.953 182.323 162.606 179.93L169.927 151.497" stroke="#0D4E80" stroke-miterlimit="10" stroke-linecap="round"/>
<path d="M186.101 218.072C186.101 218.072 188.408 235.197 163.344 261.78" stroke="#0D4E80" stroke-miterlimit="10" stroke-linecap="round"/>
<path d="M148.061 244.873L160.362 226.888" stroke="#0D4E80" stroke-miterlimit="10" stroke-linecap="round"/>
<path d="M160.531 148.33L159.662 140.082C159.636 139.821 159.701 139.559 159.844 139.349C159.987 139.139 160.197 138.998 160.431 138.955C160.644 138.917 160.862 138.963 161.047 139.083C161.233 139.204 161.375 139.391 161.449 139.614L162.395 142.479C162.434 142.597 162.503 142.699 162.595 142.773C162.687 142.846 162.797 142.887 162.91 142.891C163.023 142.895 163.135 142.86 163.231 142.793C163.326 142.725 163.401 142.628 163.446 142.513L166.381 135.03C166.453 134.84 166.559 134.668 166.692 134.525C166.825 134.381 166.983 134.269 167.157 134.193C167.33 134.118 167.515 134.082 167.701 134.087C167.887 134.093 168.07 134.139 168.24 134.223L170.471 135.304C171.269 135.691 171.917 136.378 172.3 137.243C172.683 138.108 172.776 139.094 172.563 140.028L170.074 150.938C170.074 150.938 164.642 153.31 160.531 148.33Z" fill="#B4702F"/>
<path d="M168.353 135.032L166.752 139.645" stroke="#56303C" stroke-miterlimit="10" stroke-linecap="round"/>
<path d="M170.16 135.715L168.559 140.338" stroke="#56303C" stroke-miterlimit="10" stroke-linecap="round"/>
<path d="M171.562 136.824L170.195 140.762" stroke="#56303C" stroke-miterlimit="10" stroke-linecap="round"/>
<path d="M133.57 160.39C124.951 161.438 119.394 159.25 118.418 149.352C117.954 144.868 119.004 140.354 121.367 136.673C121.05 136.753 120.73 136.813 120.407 136.852C118.62 137.067 116.818 136.629 115.278 135.605C113.738 134.582 112.544 133.028 111.879 131.183C111.215 129.338 111.116 127.304 111.598 125.391C112.08 123.478 113.117 121.792 114.549 120.592C115.981 119.392 117.73 118.744 119.527 118.746C121.325 118.749 123.072 119.402 124.502 120.606C125.931 121.81 126.964 123.499 127.442 125.413C127.919 127.327 127.816 129.362 127.147 131.205C128.743 130.328 130.467 129.77 132.239 129.557C140.859 128.509 148.642 135.674 149.627 145.56C150.612 155.446 142.186 159.343 133.57 160.39Z" fill="#D9AF00"/>
<path d="M120.355 139.329C119.968 139.255 119.599 139.096 119.267 138.864C118.936 138.631 118.65 138.329 118.425 137.973C118.2 137.618 118.04 137.218 117.955 136.794C117.87 136.371 117.862 135.934 117.931 135.507V135.507C117.999 135.08 118.143 134.673 118.354 134.308C118.565 133.943 118.839 133.628 119.16 133.38C119.481 133.132 119.844 132.957 120.227 132.863C120.609 132.77 121.005 132.761 121.391 132.837L124.331 133.415L123.808 136.662C123.669 137.521 123.228 138.284 122.58 138.784C121.933 139.284 121.133 139.48 120.355 139.329V139.329Z" stroke="#56303C" stroke-miterlimit="10" stroke-linecap="round"/>
<path d="M130.539 130.542C130.575 130.111 130.535 129.675 130.419 129.261C130.303 128.846 130.115 128.461 129.864 128.127C129.614 127.794 129.306 127.518 128.959 127.315C128.611 127.113 128.231 126.988 127.84 126.948V126.948C127.449 126.907 127.055 126.952 126.68 127.08C126.305 127.207 125.956 127.416 125.653 127.693C125.351 127.969 125.101 128.309 124.918 128.693C124.735 129.077 124.623 129.497 124.587 129.929L124.312 133.212L127.285 133.515C128.073 133.596 128.858 133.329 129.468 132.772C130.078 132.215 130.463 131.413 130.539 130.542V130.542Z" stroke="#56303C" stroke-miterlimit="10" stroke-linecap="round"/>
<path d="M148.043 163.687C143.358 166.482 136.423 164.919 132.67 159.718L131.449 160.896C131.086 161.247 130.662 161.512 130.203 161.677C129.744 161.841 129.259 161.902 128.779 161.854C128.298 161.806 127.831 161.651 127.406 161.398C126.981 161.145 126.607 160.8 126.306 160.383L125.577 159.397C124.947 158.549 124.639 157.465 124.714 156.371C124.79 155.278 125.245 154.259 125.983 153.526C126.629 152.896 127.46 152.548 128.321 152.548C129.006 152.549 129.676 152.768 130.253 153.177C130.96 153.282 131.676 153.293 132.386 153.21C137.211 152.653 140.678 148.004 140.134 142.821C139.969 141.244 139.438 139.741 138.594 138.457C139.869 139.517 141.396 140.144 142.988 140.262C144.58 140.381 146.169 139.985 147.562 139.124C148.415 140.259 149.189 141.907 149.923 144.192C152.559 152.322 154.678 159.728 148.043 163.687Z" fill="#B4702F"/>
<path d="M130.182 157.653C130.182 157.653 129.392 154.991 126.764 156.883" stroke="#56303C" stroke-miterlimit="10" stroke-linecap="round"/>
<path d="M148.994 143.093C145.973 143.545 144.694 147.4 145.275 152.193C145.566 154.573 146.437 156.639 147.599 158.062" stroke="#56303C" stroke-miterlimit="10" stroke-linecap="round"/>
<path d="M140.84 154.14C140.747 155.215 139.603 155.975 138.283 155.839" stroke="#56303C" stroke-miterlimit="10" stroke-linecap="round"/>
<path d="M149.507 148.823C149.423 149.788 148.396 150.471 147.213 150.346" stroke="#56303C" stroke-miterlimit="10" stroke-linecap="round"/>
<path d="M121.768 247.313L126.204 238.9C126.987 237.417 128.075 236.157 129.38 235.223C130.684 234.289 132.17 233.708 133.716 233.525C135.262 233.342 136.825 233.564 138.279 234.172C139.733 234.779 141.037 235.756 142.087 237.024L157.946 256.182L157.016 256.844C156.142 257.475 155.124 257.82 154.08 257.841C153.036 257.861 152.007 257.556 151.113 256.96L147.211 254.354C147.016 254.225 146.788 254.171 146.562 254.201C146.336 254.231 146.126 254.343 145.964 254.519C145.802 254.696 145.698 254.927 145.668 255.176C145.638 255.425 145.684 255.678 145.798 255.895L154.899 272.897C155.719 274.437 154.002 276.067 152.749 274.95L121.768 247.313Z" fill="#B4702F"/>
<path d="M133.186 233.601L128.568 223.076C128.568 223.076 116.019 224.103 110.566 235.717L111.533 237.09C113.533 239.928 115.87 242.455 118.482 244.601L121.768 247.305L133.186 233.601Z" fill="white"/>
<path d="M125.838 233.134C126.668 233.134 127.341 232.391 127.341 231.473C127.341 230.556 126.668 229.812 125.838 229.812C125.007 229.812 124.334 230.556 124.334 231.473C124.334 232.391 125.007 233.134 125.838 233.134Z" stroke="#59800D" stroke-miterlimit="10" stroke-linecap="round"/>
<path d="M186.623 136.624C188.819 149.485 187.708 161.176 179.939 171.059L166.162 188.582" stroke="white" stroke-miterlimit="10" stroke-linecap="round"/>
<path d="M168.002 186.795L175.165 178.323C175.165 178.323 187.617 175.112 192.611 194.984L181.254 202.154L168.002 186.795Z" fill="white"/>
<path d="M181.577 201.081C180.959 203.587 179.557 205.702 177.84 207.479C171.523 213.999 163.48 220.64 159.48 223.264C158.502 223.903 157.542 222.35 158.388 221.508L164.198 214.972L152.492 220.568C151.144 221.213 150.019 219.285 151.114 218.189L152.478 216.843L148.713 218.384C147.016 219.074 145.666 216.715 146.963 215.319L148.864 213.265L147.165 213.955C145.427 214.664 144.211 212.043 145.747 210.898L157.521 202.131L157.718 201.982C157.829 201.894 157.913 201.77 157.957 201.627C158.001 201.484 158.004 201.329 157.965 201.184C157.927 201.039 157.848 200.911 157.74 200.818C157.633 200.725 157.502 200.67 157.365 200.663C157.3 200.661 157.235 200.669 157.172 200.686L151.748 202.193C151.25 202.331 150.73 202.341 150.228 202.223C149.725 202.106 149.254 201.862 148.85 201.513L148.167 200.92L163.738 188.97C166.09 186.998 167.589 185.805 170.735 186.146C177.408 186.893 182.263 193.591 181.575 201.079L181.577 201.081Z" fill="#B4702F"/>
<path d="M148.863 213.258L159.091 206.843" stroke="#56303C" stroke-miterlimit="10" stroke-linecap="round"/>
<path d="M152.479 216.829L161.698 211.143" stroke="#56303C" stroke-miterlimit="10" stroke-linecap="round"/>
<path d="M176.101 184.85C176.932 184.85 177.605 184.107 177.605 183.189C177.605 182.272 176.932 181.528 176.101 181.528C175.271 181.528 174.598 182.272 174.598 183.189C174.598 184.107 175.271 184.85 176.101 184.85Z" stroke="#59800D" stroke-miterlimit="10" stroke-linecap="round"/>
<path d="M254.646 214.428L243.105 220.312L236.83 201.79L246.424 194.923C248.199 193.653 252.036 197.321 254.304 202.743C256.573 208.164 256.568 213.445 254.646 214.428Z" fill="#800F0D"/>
<path d="M236.821 201.787H223.109C222.675 201.787 222.258 201.972 221.944 202.304C221.63 202.635 221.444 203.087 221.424 203.566C221.406 203.999 221.526 204.426 221.762 204.772C221.999 205.118 222.337 205.363 222.719 205.463L227.615 206.747C227.816 206.8 227.998 206.918 228.137 207.086C228.277 207.254 228.367 207.464 228.397 207.69C228.427 207.915 228.396 208.146 228.306 208.351C228.216 208.556 228.073 208.727 227.894 208.842L216.244 216.286C215.952 216.472 215.696 216.72 215.491 217.016C215.287 217.311 215.137 217.648 215.05 218.008C214.964 218.368 214.943 218.743 214.988 219.112C215.033 219.481 215.144 219.836 215.314 220.157L217.555 224.39C218.356 225.906 219.618 227.058 221.116 227.643C222.615 228.228 224.252 228.207 225.738 227.584L243.091 220.306C243.091 220.306 245.836 208.978 236.821 201.787Z" fill="#B4702F"/>
<path d="M216.752 220.948L223.975 216.773" stroke="#56303C" stroke-miterlimit="10" stroke-linecap="round"/>
<path d="M218.18 223.705L225.414 219.523" stroke="#56303C" stroke-miterlimit="10" stroke-linecap="round"/>
<path d="M220.291 226.272L226.454 222.709" stroke="#56303C" stroke-miterlimit="10" stroke-linecap="round"/>
<path d="M186.626 97.5243L178.373 90.7703C178.172 90.6028 178.003 90.3918 177.877 90.1499C177.752 89.9081 177.672 89.6406 177.643 89.3637C177.614 89.0868 177.637 88.8062 177.709 88.5392C177.781 88.2721 177.902 88.0242 178.064 87.8104L181.16 83.7749C181.779 83.1788 182.535 82.7825 183.345 82.6294C184.154 82.4764 184.986 82.5725 185.75 82.9072L196.28 87.528C197.182 87.9232 197.947 88.6231 198.467 89.5276C198.987 90.4322 199.235 91.4951 199.176 92.5647L198.925 97.0905L198.135 95.6324C197.886 95.1728 197.548 94.7791 197.147 94.479C196.745 94.179 196.289 93.9798 195.81 93.8956C195.331 93.8114 194.842 93.8442 194.375 93.9917C193.909 94.1392 193.478 94.3978 193.112 94.7493L190.67 97.1084C190.12 97.6358 189.434 97.9594 188.708 98.034C187.983 98.1086 187.255 97.9304 186.626 97.5243Z" fill="#B4702F"/>
<path d="M179.697 91.1688L184.303 85.2285" stroke="#56303C" stroke-miterlimit="10" stroke-linecap="round"/>
<path d="M182.773 93.5428L187.38 87.6025" stroke="#56303C" stroke-miterlimit="10" stroke-linecap="round"/>
<path d="M185.756 95.8944L190.362 89.9541" stroke="#56303C" stroke-miterlimit="10" stroke-linecap="round"/>
</g>
<defs>
<clipPath id="clip0_1434_12041">
<rect width="403" height="351" fill="white"/>
</clipPath>
</defs>
</svg>
